rec1_005.mot
nRows=25
nColumns=19

name rec1_005.mot
datacolumns 19
datarows 25
range 10.0040782887 10.0520786834
endheader
time	ground_force_vx	ground_force_vy	ground_force_vz	ground_force_px	ground_force_py	ground_force_pz	1_ground_force_vx	1_ground_force_vy	1_ground_force_vz	1_ground_force_px	1_ground_force_py	1_ground_force_pz	ground_torque_x	ground_torque_y	ground_torque_z	1_ground_torque_x	1_ground_torque_y	1_ground_torque_z	
       10.0040782887	       23.9972308712	       49.8451326260	        0.9917641287	       -0.7000000000	       -0.0180000000	        0.5600000000	      -85.9423256071	      620.0038112727	       50.4560315246	       -0.7000000000	       -0.0180000000	       -0.5600000000	       22.8628339441	       -9.2725582610	       33.1648609401	     -288.3904869316	      -99.6386377347	      739.8310296544	
       10.0060779852	       20.8490463162	       43.6662260344	        0.2477892810	       -0.7000000000	       -0.0180000000	        0.5600000000	      -89.2457416571	      628.8807546465	       52.2601625900	       -0.7000000000	       -0.0180000000	       -0.5600000000	       19.8959384487	       -7.7384079609	       29.0909203827	     -292.2354655304	     -103.2628439278	      750.0840921755	
       10.0080782816	       17.8823692070	       38.1495855492	       -0.4215306585	       -0.7000000000	       -0.0180000000	        0.5600000000	      -92.3933061146	      637.8744504436	       53.6794936971	       -0.7000000000	       -0.0180000000	       -0.5600000000	       17.2414240736	       -6.3260583951	       25.4583270440	     -296.1644999636	     -106.3459361798	      760.4405399220	
       10.0100781381	       15.1035769196	       33.2540558177	       -1.0023127467	       -0.7000000000	       -0.0180000000	        0.5600000000	      -95.3223200743	      646.8699815668	       54.7176462299	       -0.7000000000	       -0.0180000000	       -0.5600000000	       14.8796864825	       -5.0440965165	       22.2407936728	     -300.1263918008	     -108.8638742988	      770.7466024497	
       10.0120783545	       12.5206544731	       28.9361192564	       -1.4876361221	       -0.7000000000	       -0.0180000000	        0.5600000000	      -97.9762823294	      655.7606074777	       55.3902241621	       -0.7000000000	       -0.0180000000	       -0.5600000000	       12.7903166171	       -3.8966810678	       19.4107265251	     -304.0732755097	     -110.8091939027	      780.8591580933	
       10.0140780510	       10.1418447544	       25.1508716170	       -1.8768926745	       -0.7000000000	       -0.0180000000	        0.5600000000	     -100.3065905221	      664.4495298748	       55.7216253918	       -0.7000000000	       -0.0180000000	       -0.5600000000	       10.9524734777	       -2.8833160677	       16.9396950821	     -307.9613262127	     -112.1882819361	      790.6478727652	
       10.0160784273	        7.9744389413	       21.8533722693	       -2.1744405796	       -0.7000000000	       -0.0180000000	        0.5600000000	     -102.2739993294	      672.8509058761	       55.7414413913	       -0.7000000000	       -0.0180000000	       -0.5600000000	        9.3454849109	       -1.9992435683	       14.7989525924	     -311.7511214801	     -113.0181185254	      799.9967945718	
       10.0180780838	        6.0239792142	       18.9996077493	       -2.3877365096	       -0.7000000000	       -0.0180000000	        0.5600000000	     -103.8496305324	      680.8909958575	       55.4811905588	       -0.7000000000	       -0.0180000000	       -0.5600000000	        7.9493249250	       -1.2368603148	       12.9596420321	     -315.4081722557	     -113.3231067558	      808.8062666016	
       10.0200783803	        4.2938161898	       16.5467562032	       -2.5252057690	       -0.7000000000	       -0.0180000000	        0.5600000000	     -105.0153815556	      688.5093148196	       54.9717325088	       -0.7000000000	       -0.0180000000	       -0.5600000000	        6.7446604470	       -0.5879928175	       11.3926315020	     -318.9034178925	     -113.1323617051	      816.9947791122	
       10.0220783566	        2.7848375172	       14.4534973449	       -2.5944733050	       -0.7000000000	       -0.0180000000	        0.5600000000	     -105.7636563479	      695.6589668613	       54.2416113170	       -0.7000000000	       -0.0180000000	       -0.5600000000	        5.7127800881	       -0.0458576875	       10.0687631339	     -322.2132324564	     -112.4777454180	      824.4998049642	
       10.0240784531	        1.4952005827	       12.6807882814	       -2.6015233701	       -0.7000000000	       -0.0180000000	        0.5600000000	     -106.0965453063	      702.3061450755	       53.3166627775	       -0.7000000000	       -0.0180000000	       -0.5600000000	        4.8357702766	        0.3939161075	        8.9599664525	     -325.3191675973	     -111.3929814837	      831.2773618912	
       10.0260782695	        0.4199350305	       11.1924476125	       -2.5508186641	       -0.7000000000	       -0.0180000000	        0.5600000000	     -106.0247232801	      708.4294000764	       52.2209560225	       -0.7000000000	       -0.0180000000	       -0.5600000000	        4.0967559772	        0.7337228361	        8.0403682962	     -328.2078759275	     -109.9140158791	      837.3008409577	
       10.0280784861	       -0.4495414320	        9.9551340051	       -2.4460677637	       -0.7000000000	       -0.0180000000	        0.5600000000	     -105.5662671908	      714.0186118093	       50.9784198984	       -0.7000000000	       -0.0180000000	       -0.5600000000	        3.4799611628	        0.9758343589	        7.2864816723	     -330.8709836960	     -108.0801001575	      842.5593959424	
       10.0300783426	       -1.1256861896	        8.9381481140	       -2.2912670173	       -0.7000000000	       -0.0180000000	        0.5600000000	     -104.7455054984	      719.0733940506	       49.6142694152	       -0.7000000000	       -0.0180000000	       -0.5600000000	        2.9706989518	        1.1239017709	        6.6767078445	     -333.3045450626	     -105.9347197047	      847.0559393177	
       10.0320786391	       -1.6245165391	        8.1132020253	       -2.0917458777	       -0.7000000000	       -0.0180000000	        0.5600000000	     -103.5919851166	      723.6015434474	       48.1559664515	       -0.7000000000	       -0.0180000000	       -0.5600000000	        2.5554011296	        1.1833998801	        6.1906451116	     -335.5084233199	     -103.5260865472	      850.8053542533	
       10.0340783754	       -1.9646204032	        7.4539049672	       -1.8550161449	       -0.7000000000	       -0.0180000000	        0.5600000000	     -102.1395380115	      727.6179867234	       46.6336431010	       -0.7000000000	       -0.0180000000	       -0.5600000000	        2.2215883488	        1.1621034991	        5.8083628477	     -337.4859187729	     -100.9071354024	      853.8332163706	
       10.0360785119	       -2.1657377578	        6.9353368446	       -1.5911687082	       -0.7000000000	       -0.0180000000	        0.5600000000	     -100.4252688448	      731.1436330201	       45.0797266154	       -0.7000000000	       -0.0180000000	       -0.5600000000	        1.9577710125	        1.0707762397	        5.5100891952	     -339.2432725670	      -98.1347135794	      856.1743165211	
       10.0380782482	       -2.2473811384	        6.5343800520	       -1.3126633723	       -0.7000000000	       -0.0180000000	        0.5600000000	      -98.4883246634	      734.2036988821	       43.5278485972	       -0.7000000000	       -0.0180000000	       -0.5600000000	        1.7534708178	        0.9235421626	        5.2768532772	     -340.7888170655	      -95.2679118854	      857.8704604862	
       10.0400786648	       -2.2279793111	        6.2305513734	       -1.0335251161	       -0.7000000000	       -0.0180000000	        0.5600000000	      -96.3685214789	      736.8258903968	       42.0113633415	       -0.7000000000	       -0.0180000000	       -0.5600000000	        1.5993907697	        0.7373514189	        5.0917561704	     -342.1321009598	      -92.3657224209	      858.9678533404	
       10.0420783213	       -2.1248023162	        6.0062884436	       -0.7679983685	       -0.7000000000	       -0.0180000000	        0.5600000000	      -94.1049973183	      739.0388040281	       40.5617219862	       -0.7000000000	       -0.0180000000	       -0.5600000000	        1.4874545852	        0.5300936135	        4.9406973004	     -343.2832192235	      -89.4843348480	      859.5146285517	
       10.0440786977	       -1.9545268036	        5.8463152395	       -0.5288274094	       -0.7000000000	       -0.0180000000	        0.5600000000	      -91.7350498749	      740.8704300015	       39.2069076358	       -0.7000000000	       -0.0180000000	       -0.5600000000	        1.4105511817	        0.3182573004	        4.8118990898	     -344.2521933810	      -86.6745601603	      859.5587145646	
       10.0460783941	       -1.7339054274	        5.7368151945	       -0.3255364890	       -0.7000000000	       -0.0180000000	        0.5600000000	      -89.2933308006	      742.3467703188	       37.9700338554	       -0.7000000000	       -0.0180000000	       -0.5600000000	        1.3621767487	        0.1150764732	        4.6949339271	     -345.0482983268	      -83.9797303723	      859.1460230414	
       10.0480786105	       -1.4799236977	        5.6651190962	       -0.1631962442	       -0.7000000000	       -0.0180000000	        0.5600000000	      -86.8115552572	      743.4909614295	       36.8684086432	       -0.7000000000	       -0.0180000000	       -0.5600000000	        1.3362314366	       -0.0707203479	        4.5803174907	     -345.6795621533	      -81.4344959123	      858.3191543618	
       10.0500783869	       -1.2092025702	        5.6199100691	       -0.0420437565	       -0.7000000000	       -0.0180000000	        0.5600000000	      -84.3186901389	      744.3228328094	       35.9134398520	       -0.7000000000	       -0.0180000000	       -0.5600000000	        1.3270330215	       -0.2349192962	        4.4599063857	     -346.1525489397	      -79.0649151209	      857.1165247945	
       10.0520786834	       -0.9368827450	        5.5916133883	        0.0419856753	       -0.7000000000	       -0.0180000000	        0.5600000000	      -81.8413002985	      744.8584488540	       35.1112506406	       -0.7000000000	       -0.0180000000	       -0.5600000000	        1.3294659633	       -0.3767512713	        4.3277089270	     -346.4722262385	      -76.8895175264	      855.5715697874	
